<?xml version="1.0" encoding="utf-8" standalone="no"?>
<!DOCTYPE svg PUBLIC "-//W3C//DTD SVG 1.1//EN"
  "http://www.w3.org/Graphics/SVG/1.1/DTD/svg11.dtd">
<svg xmlns:xlink="http://www.w3.org/1999/xlink" width="923.04pt" height="144pt" viewBox="0 0 923.04 144" xmlns="http://www.w3.org/2000/svg" version="1.1">
 <metadata>
  <rdf:RDF xmlns:dc="http://purl.org/dc/elements/1.1/" xmlns:cc="http://creativecommons.org/ns#" xmlns:rdf="http://www.w3.org/1999/02/22-rdf-syntax-ns#">
   <cc:Work>
    <dc:type rdf:resource="http://purl.org/dc/dcmitype/StillImage"/>
    <dc:date>2023-05-19T19:09:19.364820</dc:date>
    <dc:format>image/svg+xml</dc:format>
    <dc:creator>
     <cc:Agent>
      <dc:title>Matplotlib v3.5.3, https://matplotlib.org/</dc:title>
     </cc:Agent>
    </dc:creator>
   </cc:Work>
  </rdf:RDF>
 </metadata>
 <defs>
  <style type="text/css">*{stroke-linejoin: round; stroke-linecap: butt}</style>
 </defs>
 <g id="figure_1">
  <g id="patch_1">
   <path d="M 0 144 
L 923.04 144 
L 923.04 0 
L 0 0 
z
" style="fill: #ffffff"/>
  </g>
  <g id="axes_1">
   <g id="patch_2">
    <path d="M 115.38 128.16 
L 830.736 128.16 
L 830.736 17.28 
L 115.38 17.28 
z
" style="fill: #ffffff"/>
   </g>
   <g id="matplotlib.axis_1">
    <g id="xtick_1">
     <g id="line2d_1">
      <defs>
       <path id="mc32f0ecd84" d="M 0 0 
L 0 3.5 
" style="stroke: #000000; stroke-width: 0.8"/>
      </defs>
      <g>
       <use xlink:href="#mc32f0ecd84" x="147.896182" y="128.16" style="stroke: #000000; stroke-width: 0.8"/>
      </g>
     </g>
     <g id="text_1">
      <!-- 0 -->
      <g transform="translate(144.714932 142.758438)scale(0.1 -0.1)">
       <defs>
        <path id="DejaVuSans-30" d="M 2034 4250 
Q 1547 4250 1301 3770 
Q 1056 3291 1056 2328 
Q 1056 1369 1301 889 
Q 1547 409 2034 409 
Q 2525 409 2770 889 
Q 3016 1369 3016 2328 
Q 3016 3291 2770 3770 
Q 2525 4250 2034 4250 
z
M 2034 4750 
Q 2819 4750 3233 4129 
Q 3647 3509 3647 2328 
Q 3647 1150 3233 529 
Q 2819 -91 2034 -91 
Q 1250 -91 836 529 
Q 422 1150 422 2328 
Q 422 3509 836 4129 
Q 1250 4750 2034 4750 
z
" transform="scale(0.015625)"/>
       </defs>
       <use xlink:href="#DejaVuSans-30"/>
      </g>
     </g>
    </g>
    <g id="xtick_2">
     <g id="line2d_2">
      <g>
       <use xlink:href="#mc32f0ecd84" x="256.283455" y="128.16" style="stroke: #000000; stroke-width: 0.8"/>
      </g>
     </g>
     <g id="text_2">
      <!-- 50 -->
      <g transform="translate(249.920955 142.758438)scale(0.1 -0.1)">
       <defs>
        <path id="DejaVuSans-35" d="M 691 4666 
L 3169 4666 
L 3169 4134 
L 1269 4134 
L 1269 2991 
Q 1406 3038 1543 3061 
Q 1681 3084 1819 3084 
Q 2600 3084 3056 2656 
Q 3513 2228 3513 1497 
Q 3513 744 3044 326 
Q 2575 -91 1722 -91 
Q 1428 -91 1123 -41 
Q 819 9 494 109 
L 494 744 
Q 775 591 1075 516 
Q 1375 441 1709 441 
Q 2250 441 2565 725 
Q 2881 1009 2881 1497 
Q 2881 1984 2565 2268 
Q 2250 2553 1709 2553 
Q 1456 2553 1204 2497 
Q 953 2441 691 2322 
L 691 4666 
z
" transform="scale(0.015625)"/>
       </defs>
       <use xlink:href="#DejaVuSans-35"/>
       <use xlink:href="#DejaVuSans-30" x="63.623047"/>
      </g>
     </g>
    </g>
    <g id="xtick_3">
     <g id="line2d_3">
      <g>
       <use xlink:href="#mc32f0ecd84" x="364.670727" y="128.16" style="stroke: #000000; stroke-width: 0.8"/>
      </g>
     </g>
     <g id="text_3">
      <!-- 100 -->
      <g transform="translate(355.126977 142.758438)scale(0.1 -0.1)">
       <defs>
        <path id="DejaVuSans-31" d="M 794 531 
L 1825 531 
L 1825 4091 
L 703 3866 
L 703 4441 
L 1819 4666 
L 2450 4666 
L 2450 531 
L 3481 531 
L 3481 0 
L 794 0 
L 794 531 
z
" transform="scale(0.015625)"/>
       </defs>
       <use xlink:href="#DejaVuSans-31"/>
       <use xlink:href="#DejaVuSans-30" x="63.623047"/>
       <use xlink:href="#DejaVuSans-30" x="127.246094"/>
      </g>
     </g>
    </g>
    <g id="xtick_4">
     <g id="line2d_4">
      <g>
       <use xlink:href="#mc32f0ecd84" x="473.058" y="128.16" style="stroke: #000000; stroke-width: 0.8"/>
      </g>
     </g>
     <g id="text_4">
      <!-- 150 -->
      <g transform="translate(463.51425 142.758438)scale(0.1 -0.1)">
       <use xlink:href="#DejaVuSans-31"/>
       <use xlink:href="#DejaVuSans-35" x="63.623047"/>
       <use xlink:href="#DejaVuSans-30" x="127.246094"/>
      </g>
     </g>
    </g>
    <g id="xtick_5">
     <g id="line2d_5">
      <g>
       <use xlink:href="#mc32f0ecd84" x="581.445273" y="128.16" style="stroke: #000000; stroke-width: 0.8"/>
      </g>
     </g>
     <g id="text_5">
      <!-- 200 -->
      <g transform="translate(571.901523 142.758438)scale(0.1 -0.1)">
       <defs>
        <path id="DejaVuSans-32" d="M 1228 531 
L 3431 531 
L 3431 0 
L 469 0 
L 469 531 
Q 828 903 1448 1529 
Q 2069 2156 2228 2338 
Q 2531 2678 2651 2914 
Q 2772 3150 2772 3378 
Q 2772 3750 2511 3984 
Q 2250 4219 1831 4219 
Q 1534 4219 1204 4116 
Q 875 4013 500 3803 
L 500 4441 
Q 881 4594 1212 4672 
Q 1544 4750 1819 4750 
Q 2544 4750 2975 4387 
Q 3406 4025 3406 3419 
Q 3406 3131 3298 2873 
Q 3191 2616 2906 2266 
Q 2828 2175 2409 1742 
Q 1991 1309 1228 531 
z
" transform="scale(0.015625)"/>
       </defs>
       <use xlink:href="#DejaVuSans-32"/>
       <use xlink:href="#DejaVuSans-30" x="63.623047"/>
       <use xlink:href="#DejaVuSans-30" x="127.246094"/>
      </g>
     </g>
    </g>
    <g id="xtick_6">
     <g id="line2d_6">
      <g>
       <use xlink:href="#mc32f0ecd84" x="689.832545" y="128.16" style="stroke: #000000; stroke-width: 0.8"/>
      </g>
     </g>
     <g id="text_6">
      <!-- 250 -->
      <g transform="translate(680.288795 142.758438)scale(0.1 -0.1)">
       <use xlink:href="#DejaVuSans-32"/>
       <use xlink:href="#DejaVuSans-35" x="63.623047"/>
       <use xlink:href="#DejaVuSans-30" x="127.246094"/>
      </g>
     </g>
    </g>
    <g id="xtick_7">
     <g id="line2d_7">
      <g>
       <use xlink:href="#mc32f0ecd84" x="798.219818" y="128.16" style="stroke: #000000; stroke-width: 0.8"/>
      </g>
     </g>
     <g id="text_7">
      <!-- 300 -->
      <g transform="translate(788.676068 142.758438)scale(0.1 -0.1)">
       <defs>
        <path id="DejaVuSans-33" d="M 2597 2516 
Q 3050 2419 3304 2112 
Q 3559 1806 3559 1356 
Q 3559 666 3084 287 
Q 2609 -91 1734 -91 
Q 1441 -91 1130 -33 
Q 819 25 488 141 
L 488 750 
Q 750 597 1062 519 
Q 1375 441 1716 441 
Q 2309 441 2620 675 
Q 2931 909 2931 1356 
Q 2931 1769 2642 2001 
Q 2353 2234 1838 2234 
L 1294 2234 
L 1294 2753 
L 1863 2753 
Q 2328 2753 2575 2939 
Q 2822 3125 2822 3475 
Q 2822 3834 2567 4026 
Q 2313 4219 1838 4219 
Q 1578 4219 1281 4162 
Q 984 4106 628 3988 
L 628 4550 
Q 988 4650 1302 4700 
Q 1616 4750 1894 4750 
Q 2613 4750 3031 4423 
Q 3450 4097 3450 3541 
Q 3450 3153 3228 2886 
Q 3006 2619 2597 2516 
z
" transform="scale(0.015625)"/>
       </defs>
       <use xlink:href="#DejaVuSans-33"/>
       <use xlink:href="#DejaVuSans-30" x="63.623047"/>
       <use xlink:href="#DejaVuSans-30" x="127.246094"/>
      </g>
     </g>
    </g>
   </g>
   <g id="matplotlib.axis_2">
    <g id="ytick_1">
     <g id="line2d_8">
      <defs>
       <path id="m7730eb892a" d="M 0 0 
L -3.5 0 
" style="stroke: #000000; stroke-width: 0.8"/>
      </defs>
      <g>
       <use xlink:href="#m7730eb892a" x="115.38" y="123.12" style="stroke: #000000; stroke-width: 0.8"/>
      </g>
     </g>
     <g id="text_8">
      <!-- −1.0 -->
      <g transform="translate(84.097187 126.919219)scale(0.1 -0.1)">
       <defs>
        <path id="DejaVuSans-2212" d="M 678 2272 
L 4684 2272 
L 4684 1741 
L 678 1741 
L 678 2272 
z
" transform="scale(0.015625)"/>
        <path id="DejaVuSans-2e" d="M 684 794 
L 1344 794 
L 1344 0 
L 684 0 
L 684 794 
z
" transform="scale(0.015625)"/>
       </defs>
       <use xlink:href="#DejaVuSans-2212"/>
       <use xlink:href="#DejaVuSans-31" x="83.789062"/>
       <use xlink:href="#DejaVuSans-2e" x="147.412109"/>
       <use xlink:href="#DejaVuSans-30" x="179.199219"/>
      </g>
     </g>
    </g>
    <g id="ytick_2">
     <g id="line2d_9">
      <g>
       <use xlink:href="#m7730eb892a" x="115.38" y="97.92" style="stroke: #000000; stroke-width: 0.8"/>
      </g>
     </g>
     <g id="text_9">
      <!-- −0.5 -->
      <g transform="translate(84.097187 101.719219)scale(0.1 -0.1)">
       <use xlink:href="#DejaVuSans-2212"/>
       <use xlink:href="#DejaVuSans-30" x="83.789062"/>
       <use xlink:href="#DejaVuSans-2e" x="147.412109"/>
       <use xlink:href="#DejaVuSans-35" x="179.199219"/>
      </g>
     </g>
    </g>
    <g id="ytick_3">
     <g id="line2d_10">
      <g>
       <use xlink:href="#m7730eb892a" x="115.38" y="72.72" style="stroke: #000000; stroke-width: 0.8"/>
      </g>
     </g>
     <g id="text_10">
      <!-- 0.0 -->
      <g transform="translate(92.476875 76.519219)scale(0.1 -0.1)">
       <use xlink:href="#DejaVuSans-30"/>
       <use xlink:href="#DejaVuSans-2e" x="63.623047"/>
       <use xlink:href="#DejaVuSans-30" x="95.410156"/>
      </g>
     </g>
    </g>
    <g id="ytick_4">
     <g id="line2d_11">
      <g>
       <use xlink:href="#m7730eb892a" x="115.38" y="47.52" style="stroke: #000000; stroke-width: 0.8"/>
      </g>
     </g>
     <g id="text_11">
      <!-- 0.5 -->
      <g transform="translate(92.476875 51.319219)scale(0.1 -0.1)">
       <use xlink:href="#DejaVuSans-30"/>
       <use xlink:href="#DejaVuSans-2e" x="63.623047"/>
       <use xlink:href="#DejaVuSans-35" x="95.410156"/>
      </g>
     </g>
    </g>
    <g id="ytick_5">
     <g id="line2d_12">
      <g>
       <use xlink:href="#m7730eb892a" x="115.38" y="22.32" style="stroke: #000000; stroke-width: 0.8"/>
      </g>
     </g>
     <g id="text_12">
      <!-- 1.0 -->
      <g transform="translate(92.476875 26.119219)scale(0.1 -0.1)">
       <use xlink:href="#DejaVuSans-31"/>
       <use xlink:href="#DejaVuSans-2e" x="63.623047"/>
       <use xlink:href="#DejaVuSans-30" x="95.410156"/>
      </g>
     </g>
    </g>
   </g>
   <g id="line2d_13">
    <path d="M 147.896182 72.72 
L 152.231673 52.214042 
L 154.399418 43.087081 
L 156.567164 35.256082 
L 158.734909 29.063523 
L 160.902655 24.78023 
L 163.0704 22.593527 
L 165.238145 22.599048 
L 167.405891 24.79655 
L 169.573636 29.089929 
L 171.741382 35.291419 
L 173.909127 43.129804 
L 176.076873 52.262283 
L 180.412364 72.772796 
L 184.747855 93.274175 
L 186.9156 102.395609 
L 189.083345 110.219215 
L 191.251091 116.402835 
L 193.418836 120.676038 
L 195.586582 122.851938 
L 197.754327 122.835377 
L 199.922073 120.627077 
L 202.089818 116.323617 
L 204.257564 110.113203 
L 206.425309 102.26744 
L 208.593055 93.129455 
L 212.928545 72.614407 
L 217.264036 52.11763 
L 219.431782 43.001733 
L 221.599527 35.18553 
L 223.767273 29.010854 
L 225.935018 24.747747 
L 228.102764 22.582651 
L 230.270509 22.610254 
L 232.438255 24.829348 
L 234.606 29.142885 
L 236.773745 35.362216 
L 238.941491 43.215347 
L 241.109236 52.35883 
L 245.444727 72.878389 
L 249.780218 93.370543 
L 251.947964 102.480892 
L 254.115709 110.289683 
L 256.283455 116.455408 
L 258.4512 120.708415 
L 260.618945 122.862705 
L 262.786691 122.824061 
L 264.954436 120.594174 
L 267.122182 116.270565 
L 269.289927 110.042323 
L 271.457673 102.181832 
L 273.625418 93.032863 
L 277.960909 72.508815 
L 282.2964 52.021308 
L 284.464145 42.916515 
L 286.631891 35.115144 
L 288.799636 28.958378 
L 290.967382 24.715475 
L 293.135127 22.571995 
L 295.302873 22.62168 
L 297.470618 24.862357 
L 299.638364 29.196032 
L 301.806109 35.433178 
L 303.973855 43.30102 
L 306.1416 52.455467 
L 310.477091 72.983981 
L 314.812582 93.46682 
L 316.980327 102.566044 
L 319.148073 110.359987 
L 321.315818 116.507789 
L 323.483564 120.740582 
L 325.651309 122.87325 
L 327.819055 122.812525 
L 329.9868 120.56106 
L 332.154545 116.217323 
L 334.322291 109.97128 
L 336.490036 102.096095 
L 338.657782 92.936181 
L 342.993273 72.403224 
L 347.328764 51.925076 
L 349.496509 42.831428 
L 351.664255 35.044923 
L 353.832 28.906093 
L 355.999745 24.683414 
L 358.167491 22.561559 
L 360.335236 22.633326 
L 362.502982 24.895575 
L 364.670727 29.24937 
L 366.838473 35.504303 
L 369.006218 43.386822 
L 371.173964 52.552193 
L 375.509455 73.089571 
L 379.844945 93.563005 
L 382.012691 102.651066 
L 384.180436 110.430126 
L 386.348182 116.559977 
L 388.515927 120.772538 
L 390.683673 122.883576 
L 392.851418 122.800769 
L 395.019164 120.527737 
L 397.186909 116.163889 
L 399.354655 109.900073 
L 401.5224 102.010229 
L 403.690145 92.839411 
L 408.025636 72.297634 
L 412.361127 51.828936 
L 414.528873 42.746473 
L 416.696618 34.974867 
L 418.864364 28.854001 
L 421.032109 24.651563 
L 423.199855 22.551343 
L 425.3676 22.645192 
L 427.535345 24.929004 
L 429.703091 29.302899 
L 431.870836 35.575592 
L 434.038582 43.472752 
L 436.206327 52.649007 
L 440.541818 73.19516 
L 444.877309 93.6591 
L 447.045055 102.735956 
L 449.2128 110.500099 
L 451.380545 116.611973 
L 453.548291 120.804283 
L 455.716036 122.893682 
L 457.883782 122.788793 
L 460.051527 120.494204 
L 462.219273 116.110264 
L 464.387018 109.828702 
L 466.554764 101.924234 
L 468.722509 92.742553 
L 473.058 72.192046 
L 477.393491 51.732888 
L 479.561236 42.661649 
L 481.728982 34.904977 
L 483.896727 28.802101 
L 486.064473 24.619924 
L 488.232218 22.541348 
L 490.399964 22.657277 
L 492.567709 24.962642 
L 494.735455 29.356619 
L 496.9032 35.647044 
L 499.070945 43.558811 
L 501.238691 52.74591 
L 505.574182 73.300747 
L 509.909673 93.755102 
L 512.077418 102.820714 
L 514.245164 110.569906 
L 516.412909 116.663777 
L 518.580655 120.835817 
L 520.7484 122.903567 
L 522.916145 122.776598 
L 525.083891 120.460461 
L 527.251636 116.05645 
L 529.419382 109.757169 
L 531.587127 101.838111 
L 533.754873 92.645606 
L 538.090364 72.08646 
L 542.425855 51.636931 
L 544.5936 42.576956 
L 546.761345 34.835252 
L 548.929091 28.750394 
L 551.096836 24.588495 
L 553.264582 22.531573 
L 555.432327 22.669583 
L 557.600073 24.99649 
L 559.767818 29.410529 
L 561.935564 35.718658 
L 564.103309 43.644998 
L 566.271055 52.8429 
L 570.606545 73.406331 
L 574.942036 93.851012 
L 577.109782 102.90534 
L 579.277527 110.639547 
L 581.445273 116.715387 
L 583.613018 120.86714 
L 585.780764 122.913232 
L 587.948509 122.764182 
L 590.116255 120.426508 
L 592.284 116.002445 
L 594.451745 109.685474 
L 596.619491 101.75186 
L 598.787236 92.548572 
L 603.122727 71.980878 
L 607.458218 51.541068 
L 609.625964 42.492396 
L 611.793709 34.765694 
L 613.961455 28.69888 
L 616.1292 24.557278 
L 618.296945 22.522018 
L 620.464691 22.682108 
L 622.632436 25.030547 
L 624.800182 29.464629 
L 626.967927 35.790435 
L 629.135673 43.731313 
L 631.303418 52.939977 
L 635.638909 73.511913 
L 639.9744 93.946829 
L 642.142145 102.989834 
L 644.309891 110.709022 
L 646.477636 116.766805 
L 648.645382 120.898251 
L 650.813127 122.922677 
L 652.980873 122.751548 
L 655.148618 120.392346 
L 657.316364 115.94825 
L 659.484109 109.613616 
L 661.651855 101.665482 
L 663.8196 92.451451 
L 668.155091 71.875298 
L 672.490582 51.445297 
L 674.658327 42.407969 
L 676.826073 34.696303 
L 678.993818 28.647559 
L 681.161564 24.526273 
L 683.329309 22.512683 
L 685.497055 22.694852 
L 687.6648 25.064813 
L 689.832545 29.518919 
L 692.000291 35.862374 
L 694.168036 43.817755 
L 696.335782 53.037141 
L 700.671273 73.617491 
L 705.006764 94.042553 
L 707.174509 103.074195 
L 709.342255 110.77833 
L 711.51 116.818029 
L 713.677745 120.929151 
L 715.845491 122.931902 
L 718.013236 122.738693 
L 720.180982 120.357975 
L 722.348727 115.893865 
L 724.516473 109.541596 
L 726.684218 101.578977 
L 728.851964 92.354244 
L 733.187455 71.769722 
L 737.522945 51.34962 
L 739.690691 42.323675 
L 741.858436 34.627079 
L 744.026182 28.596432 
L 746.193927 24.495479 
L 748.361673 22.503569 
L 750.529418 22.707817 
L 752.697164 25.099289 
L 754.864909 29.573399 
L 757.032655 35.934475 
L 759.2004 43.904323 
L 761.368145 53.134392 
L 765.703636 73.723065 
L 770.039127 94.138184 
L 772.206873 103.158422 
L 774.374618 110.847471 
L 776.542364 116.869059 
L 778.710109 120.959839 
L 780.877855 122.940906 
L 783.0456 122.725619 
L 785.213345 120.323394 
L 787.381091 115.839291 
L 789.548836 109.469414 
L 791.716582 101.492345 
L 793.884327 92.25695 
L 798.219818 71.66415 
L 798.219818 71.66415 
" clip-path="url(#pc0462fb768)" style="fill: none; stroke: #1f77b4; stroke-width: 1.5; stroke-linecap: square"/>
   </g>
   <g id="LineCollection_1">
    <path d="M 212.928545 123.12 
L 212.928545 22.32 
" clip-path="url(#pc0462fb768)" style="fill: none; stroke-dasharray: 5.55,2.4; stroke-dashoffset: 0; stroke: #808080; stroke-width: 1.5"/>
   </g>
   <g id="LineCollection_2">
    <path d="M 277.960909 123.12 
L 277.960909 22.32 
" clip-path="url(#pc0462fb768)" style="fill: none; stroke-dasharray: 5.55,2.4; stroke-dashoffset: 0; stroke: #808080; stroke-width: 1.5"/>
   </g>
   <g id="LineCollection_3">
    <path d="M 342.993273 123.12 
L 342.993273 22.32 
" clip-path="url(#pc0462fb768)" style="fill: none; stroke-dasharray: 5.55,2.4; stroke-dashoffset: 0; stroke: #808080; stroke-width: 1.5"/>
   </g>
   <g id="LineCollection_4">
    <path d="M 408.025636 123.12 
L 408.025636 22.32 
" clip-path="url(#pc0462fb768)" style="fill: none; stroke-dasharray: 5.55,2.4; stroke-dashoffset: 0; stroke: #808080; stroke-width: 1.5"/>
   </g>
   <g id="LineCollection_5">
    <path d="M 473.058 123.12 
L 473.058 22.32 
" clip-path="url(#pc0462fb768)" style="fill: none; stroke-dasharray: 5.55,2.4; stroke-dashoffset: 0; stroke: #808080; stroke-width: 1.5"/>
   </g>
   <g id="LineCollection_6">
    <path d="M 538.090364 123.12 
L 538.090364 22.32 
" clip-path="url(#pc0462fb768)" style="fill: none; stroke-dasharray: 5.55,2.4; stroke-dashoffset: 0; stroke: #808080; stroke-width: 1.5"/>
   </g>
   <g id="LineCollection_7">
    <path d="M 603.122727 123.12 
L 603.122727 22.32 
" clip-path="url(#pc0462fb768)" style="fill: none; stroke-dasharray: 5.55,2.4; stroke-dashoffset: 0; stroke: #808080; stroke-width: 1.5"/>
   </g>
   <g id="LineCollection_8">
    <path d="M 668.155091 123.12 
L 668.155091 22.32 
" clip-path="url(#pc0462fb768)" style="fill: none; stroke-dasharray: 5.55,2.4; stroke-dashoffset: 0; stroke: #808080; stroke-width: 1.5"/>
   </g>
   <g id="LineCollection_9">
    <path d="M 733.187455 123.12 
L 733.187455 22.32 
" clip-path="url(#pc0462fb768)" style="fill: none; stroke-dasharray: 5.55,2.4; stroke-dashoffset: 0; stroke: #808080; stroke-width: 1.5"/>
   </g>
   <g id="LineCollection_10">
    <path d="M 798.219818 123.12 
L 798.219818 22.32 
" clip-path="url(#pc0462fb768)" style="fill: none; stroke-dasharray: 5.55,2.4; stroke-dashoffset: 0; stroke: #808080; stroke-width: 1.5"/>
   </g>
   <g id="patch_3">
    <path d="M 115.38 128.16 
L 115.38 17.28 
" style="fill: none; stroke: #000000; stroke-width: 0.8; stroke-linejoin: miter; stroke-linecap: square"/>
   </g>
   <g id="patch_4">
    <path d="M 830.736 128.16 
L 830.736 17.28 
" style="fill: none; stroke: #000000; stroke-width: 0.8; stroke-linejoin: miter; stroke-linecap: square"/>
   </g>
   <g id="patch_5">
    <path d="M 115.38 128.16 
L 830.736 128.16 
" style="fill: none; stroke: #000000; stroke-width: 0.8; stroke-linejoin: miter; stroke-linecap: square"/>
   </g>
   <g id="patch_6">
    <path d="M 115.38 17.28 
L 830.736 17.28 
" style="fill: none; stroke: #000000; stroke-width: 0.8; stroke-linejoin: miter; stroke-linecap: square"/>
   </g>
  </g>
 </g>
 <defs>
  <clipPath id="pc0462fb768">
   <rect x="115.38" y="17.28" width="715.356" height="110.88"/>
  </clipPath>
 </defs>
</svg>
