<?xml version="1.0" encoding="utf-8" standalone="no"?>
<!DOCTYPE svg PUBLIC "-//W3C//DTD SVG 1.1//EN"
  "http://www.w3.org/Graphics/SVG/1.1/DTD/svg11.dtd">
<svg xmlns:xlink="http://www.w3.org/1999/xlink" width="864pt" height="180pt" viewBox="0 0 864 180" xmlns="http://www.w3.org/2000/svg" version="1.1">
 <metadata>
  <rdf:RDF xmlns:dc="http://purl.org/dc/elements/1.1/" xmlns:cc="http://creativecommons.org/ns#" xmlns:rdf="http://www.w3.org/1999/02/22-rdf-syntax-ns#">
   <cc:Work>
    <dc:type rdf:resource="http://purl.org/dc/dcmitype/StillImage"/>
    <dc:date>2023-05-20T00:11:41.614091</dc:date>
    <dc:format>image/svg+xml</dc:format>
    <dc:creator>
     <cc:Agent>
      <dc:title>Matplotlib v3.5.3, https://matplotlib.org/</dc:title>
     </cc:Agent>
    </dc:creator>
   </cc:Work>
  </rdf:RDF>
 </metadata>
 <defs>
  <style type="text/css">*{stroke-linejoin: round; stroke-linecap: butt}</style>
 </defs>
 <g id="figure_1">
  <g id="patch_1">
   <path d="M 0 180 
L 864 180 
L 864 0 
L 0 0 
z
" style="fill: #ffffff"/>
  </g>
  <g id="axes_1">
   <g id="patch_2">
    <path d="M 108 160.2 
L 294 160.2 
L 294 21.6 
L 108 21.6 
z
" style="fill: #ffffff"/>
   </g>
   <g id="matplotlib.axis_1">
    <g id="xtick_1">
     <g id="line2d_1">
      <defs>
       <path id="mf15c546eb4" d="M 0 0 
L 0 3.5 
" style="stroke: #000000; stroke-width: 0.8"/>
      </defs>
      <g>
       <use xlink:href="#mf15c546eb4" x="116.454545" y="160.2" style="stroke: #000000; stroke-width: 0.8"/>
      </g>
     </g>
     <g id="text_1">
      <!-- 0 -->
      <g transform="translate(113.273295 174.798438)scale(0.1 -0.1)">
       <defs>
        <path id="DejaVuSans-30" d="M 2034 4250 
Q 1547 4250 1301 3770 
Q 1056 3291 1056 2328 
Q 1056 1369 1301 889 
Q 1547 409 2034 409 
Q 2525 409 2770 889 
Q 3016 1369 3016 2328 
Q 3016 3291 2770 3770 
Q 2525 4250 2034 4250 
z
M 2034 4750 
Q 2819 4750 3233 4129 
Q 3647 3509 3647 2328 
Q 3647 1150 3233 529 
Q 2819 -91 2034 -91 
Q 1250 -91 836 529 
Q 422 1150 422 2328 
Q 422 3509 836 4129 
Q 1250 4750 2034 4750 
z
" transform="scale(0.015625)"/>
       </defs>
       <use xlink:href="#DejaVuSans-30"/>
      </g>
     </g>
    </g>
    <g id="xtick_2">
     <g id="line2d_2">
      <g>
       <use xlink:href="#mf15c546eb4" x="163.686643" y="160.2" style="stroke: #000000; stroke-width: 0.8"/>
      </g>
     </g>
     <g id="text_2">
      <!-- 50 -->
      <g transform="translate(157.324143 174.798438)scale(0.1 -0.1)">
       <defs>
        <path id="DejaVuSans-35" d="M 691 4666 
L 3169 4666 
L 3169 4134 
L 1269 4134 
L 1269 2991 
Q 1406 3038 1543 3061 
Q 1681 3084 1819 3084 
Q 2600 3084 3056 2656 
Q 3513 2228 3513 1497 
Q 3513 744 3044 326 
Q 2575 -91 1722 -91 
Q 1428 -91 1123 -41 
Q 819 9 494 109 
L 494 744 
Q 775 591 1075 516 
Q 1375 441 1709 441 
Q 2250 441 2565 725 
Q 2881 1009 2881 1497 
Q 2881 1984 2565 2268 
Q 2250 2553 1709 2553 
Q 1456 2553 1204 2497 
Q 953 2441 691 2322 
L 691 4666 
z
" transform="scale(0.015625)"/>
       </defs>
       <use xlink:href="#DejaVuSans-35"/>
       <use xlink:href="#DejaVuSans-30" x="63.623047"/>
      </g>
     </g>
    </g>
    <g id="xtick_3">
     <g id="line2d_3">
      <g>
       <use xlink:href="#mf15c546eb4" x="210.91874" y="160.2" style="stroke: #000000; stroke-width: 0.8"/>
      </g>
     </g>
     <g id="text_3">
      <!-- 100 -->
      <g transform="translate(201.37499 174.798438)scale(0.1 -0.1)">
       <defs>
        <path id="DejaVuSans-31" d="M 794 531 
L 1825 531 
L 1825 4091 
L 703 3866 
L 703 4441 
L 1819 4666 
L 2450 4666 
L 2450 531 
L 3481 531 
L 3481 0 
L 794 0 
L 794 531 
z
" transform="scale(0.015625)"/>
       </defs>
       <use xlink:href="#DejaVuSans-31"/>
       <use xlink:href="#DejaVuSans-30" x="63.623047"/>
       <use xlink:href="#DejaVuSans-30" x="127.246094"/>
      </g>
     </g>
    </g>
    <g id="xtick_4">
     <g id="line2d_4">
      <g>
       <use xlink:href="#mf15c546eb4" x="258.150838" y="160.2" style="stroke: #000000; stroke-width: 0.8"/>
      </g>
     </g>
     <g id="text_4">
      <!-- 150 -->
      <g transform="translate(248.607088 174.798438)scale(0.1 -0.1)">
       <use xlink:href="#DejaVuSans-31"/>
       <use xlink:href="#DejaVuSans-35" x="63.623047"/>
       <use xlink:href="#DejaVuSans-30" x="127.246094"/>
      </g>
     </g>
    </g>
   </g>
   <g id="matplotlib.axis_2">
    <g id="ytick_1">
     <g id="line2d_5">
      <defs>
       <path id="m257d1b7592" d="M 0 0 
L -3.5 0 
" style="stroke: #000000; stroke-width: 0.8"/>
      </defs>
      <g>
       <use xlink:href="#m257d1b7592" x="108" y="154.010503" style="stroke: #000000; stroke-width: 0.8"/>
      </g>
     </g>
     <g id="text_5">
      <!-- −1.0 -->
      <g transform="translate(76.717187 157.809722)scale(0.1 -0.1)">
       <defs>
        <path id="DejaVuSans-2212" d="M 678 2272 
L 4684 2272 
L 4684 1741 
L 678 1741 
L 678 2272 
z
" transform="scale(0.015625)"/>
        <path id="DejaVuSans-2e" d="M 684 794 
L 1344 794 
L 1344 0 
L 684 0 
L 684 794 
z
" transform="scale(0.015625)"/>
       </defs>
       <use xlink:href="#DejaVuSans-2212"/>
       <use xlink:href="#DejaVuSans-31" x="83.789062"/>
       <use xlink:href="#DejaVuSans-2e" x="147.412109"/>
       <use xlink:href="#DejaVuSans-30" x="179.199219"/>
      </g>
     </g>
    </g>
    <g id="ytick_2">
     <g id="line2d_6">
      <g>
       <use xlink:href="#m257d1b7592" x="108" y="122.456221" style="stroke: #000000; stroke-width: 0.8"/>
      </g>
     </g>
     <g id="text_6">
      <!-- −0.5 -->
      <g transform="translate(76.717187 126.255439)scale(0.1 -0.1)">
       <use xlink:href="#DejaVuSans-2212"/>
       <use xlink:href="#DejaVuSans-30" x="83.789062"/>
       <use xlink:href="#DejaVuSans-2e" x="147.412109"/>
       <use xlink:href="#DejaVuSans-35" x="179.199219"/>
      </g>
     </g>
    </g>
    <g id="ytick_3">
     <g id="line2d_7">
      <g>
       <use xlink:href="#m257d1b7592" x="108" y="90.901938" style="stroke: #000000; stroke-width: 0.8"/>
      </g>
     </g>
     <g id="text_7">
      <!-- 0.0 -->
      <g transform="translate(85.096875 94.701157)scale(0.1 -0.1)">
       <use xlink:href="#DejaVuSans-30"/>
       <use xlink:href="#DejaVuSans-2e" x="63.623047"/>
       <use xlink:href="#DejaVuSans-30" x="95.410156"/>
      </g>
     </g>
    </g>
    <g id="ytick_4">
     <g id="line2d_8">
      <g>
       <use xlink:href="#m257d1b7592" x="108" y="59.347655" style="stroke: #000000; stroke-width: 0.8"/>
      </g>
     </g>
     <g id="text_8">
      <!-- 0.5 -->
      <g transform="translate(85.096875 63.146874)scale(0.1 -0.1)">
       <use xlink:href="#DejaVuSans-30"/>
       <use xlink:href="#DejaVuSans-2e" x="63.623047"/>
       <use xlink:href="#DejaVuSans-35" x="95.410156"/>
      </g>
     </g>
    </g>
    <g id="ytick_5">
     <g id="line2d_9">
      <g>
       <use xlink:href="#m257d1b7592" x="108" y="27.793373" style="stroke: #000000; stroke-width: 0.8"/>
      </g>
     </g>
     <g id="text_9">
      <!-- 1.0 -->
      <g transform="translate(85.096875 31.592591)scale(0.1 -0.1)">
       <use xlink:href="#DejaVuSans-31"/>
       <use xlink:href="#DejaVuSans-2e" x="63.623047"/>
       <use xlink:href="#DejaVuSans-30" x="95.410156"/>
      </g>
     </g>
    </g>
   </g>
   <g id="line2d_10">
    <path d="M 116.454545 146.623839 
L 117.399187 151.567202 
L 118.343829 153.857439 
L 119.288471 153.394391 
L 120.233113 150.198308 
L 121.177755 144.408966 
L 122.122397 136.279557 
L 123.067039 126.16561 
L 124.956323 101.820837 
L 127.790249 63.188779 
L 128.734891 52.002714 
L 129.679533 42.517862 
L 130.624175 35.149032 
L 131.568817 30.218491 
L 132.513459 27.941869 
L 133.458101 28.418734 
L 134.402743 31.628229 
L 135.347384 37.429992 
L 136.292026 45.570288 
L 137.236668 55.693111 
L 139.125952 80.048157 
L 141.959878 118.674476 
L 142.90452 129.853198 
L 143.849162 139.328431 
L 144.793804 146.685788 
L 145.738446 151.603502 
L 146.683088 153.866504 
L 147.62773 153.375824 
L 148.572372 150.15292 
L 149.517014 144.338744 
L 150.461656 136.18757 
L 151.406298 126.055882 
L 153.295582 101.690589 
L 156.129507 63.070052 
L 157.074149 51.898685 
L 158.018791 42.433081 
L 158.963433 35.087205 
L 159.908075 30.182323 
L 160.852717 27.932943 
L 161.797359 28.437439 
L 162.742001 31.673747 
L 163.686643 37.500332 
L 164.631285 45.662374 
L 165.575927 55.802916 
L 167.465211 80.178429 
L 170.299137 118.793142 
L 171.243779 129.957141 
L 172.188421 139.413106 
L 173.133062 146.747492 
L 174.077704 151.639537 
L 175.022346 153.875293 
L 175.966988 153.356982 
L 176.91163 150.107273 
L 177.856272 144.268286 
L 178.800914 136.095384 
L 179.745556 125.945999 
L 181.63484 101.560293 
L 184.468766 62.951447 
L 185.413408 51.794827 
L 186.35805 42.348512 
L 187.302692 35.025624 
L 188.247334 30.146422 
L 189.191976 27.924292 
L 190.136618 28.456417 
L 191.08126 31.719525 
L 192.025901 37.570906 
L 192.970543 45.754659 
L 193.915185 55.912876 
L 195.804469 80.308748 
L 198.638395 118.911685 
L 199.583037 130.060913 
L 200.527679 139.497569 
L 201.472321 146.808951 
L 202.416963 151.675304 
L 203.361605 153.883805 
L 204.306247 153.337867 
L 205.250889 150.061365 
L 206.195531 144.197594 
L 207.140173 136.003 
L 208.084815 125.835963 
L 209.974099 101.429951 
L 212.808024 62.832965 
L 213.752666 51.691141 
L 214.697308 42.264156 
L 215.64195 34.964287 
L 216.586592 30.110788 
L 217.531234 27.915918 
L 218.475876 28.47567 
L 219.420518 31.765562 
L 220.36516 37.641715 
L 221.309802 45.847142 
L 222.254444 56.022989 
L 224.143728 80.439114 
L 226.977654 119.030106 
L 227.922296 130.164514 
L 228.866938 139.581818 
L 229.811579 146.870165 
L 230.756221 151.710805 
L 231.700863 153.892041 
L 232.645505 153.318477 
L 233.590147 150.015198 
L 234.534789 144.126669 
L 235.479431 135.910418 
L 236.424073 125.725773 
L 238.313357 101.299562 
L 241.147283 62.714606 
L 242.091925 51.587627 
L 243.036567 42.180013 
L 243.981209 34.903197 
L 244.925851 30.07542 
L 245.870493 27.907821 
L 246.815135 28.495197 
L 247.759777 31.811859 
L 248.704418 37.712758 
L 249.64906 45.939823 
L 250.593702 56.133255 
L 252.482986 80.569525 
L 255.316912 119.148403 
L 256.261554 130.267941 
L 257.206196 139.665854 
L 258.150838 146.931133 
L 259.09548 151.74604 
L 260.040122 153.9 
L 260.984764 153.298813 
L 261.929406 149.968771 
L 262.874048 144.05551 
L 263.81869 135.817638 
L 264.763332 125.61543 
L 266.652616 101.169128 
L 269.486541 62.596371 
L 270.431183 51.484285 
L 271.375825 42.096085 
L 272.320467 34.842351 
L 273.265109 30.04032 
L 274.209751 27.9 
L 275.154393 28.514997 
L 276.099035 31.858415 
L 277.043677 37.784034 
L 277.988319 46.032702 
L 278.932961 56.243674 
L 280.822245 80.699982 
L 283.656171 119.266576 
L 284.600813 130.371197 
L 285.545455 139.749675 
L 285.545455 139.749675 
" clip-path="url(#p7cd5488e54)" style="fill: none; stroke: #1f77b4; stroke-width: 1.5; stroke-linecap: square"/>
   </g>
   <g id="line2d_11">
    <path d="M 201.472321 146.685706 
L 202.416963 151.603414 
L 203.361605 153.866412 
L 204.306247 153.375732 
L 205.250889 150.152834 
L 206.195531 144.338665 
L 207.140173 136.187504 
L 208.084815 126.05583 
L 209.029457 114.386742 
L 209.974099 101.690573 
L 210.91874 88.522575 
L 211.863382 75.458637 
L 212.808024 63.070093 
L 213.752666 51.898742 
L 214.697308 42.433152 
L 215.64195 35.087287 
L 216.586592 30.182412 
L 217.531234 27.933035 
L 218.475876 28.43753 
L 219.420518 31.673834 
L 220.36516 37.50041 
L 221.309802 45.66244 
L 222.254444 55.802968 
L 223.199086 67.478508 
L 224.143728 80.178445 
L 225.08837 93.347361 
L 226.033012 106.40933 
L 226.977654 118.793101 
L 227.922296 129.957084 
L 228.866938 139.413035 
L 229.811579 146.685706 
L 230.756221 151.603414 
L 231.700863 153.866412 
L 232.645505 153.375732 
L 233.590147 150.152834 
L 234.534789 144.338665 
L 235.479431 136.187504 
L 236.424073 126.05583 
L 237.368715 114.386742 
L 238.313357 101.690573 
L 239.257999 88.522575 
L 240.202641 75.458637 
L 241.147283 63.070093 
L 242.091925 51.898742 
L 243.036567 42.433152 
L 243.981209 35.087287 
L 244.925851 30.182412 
L 245.870493 27.933035 
L 246.815135 28.43753 
L 247.759777 31.673834 
L 248.704418 37.50041 
L 249.64906 45.66244 
L 250.593702 55.802968 
L 251.538344 67.478508 
L 252.482986 80.178445 
L 253.427628 93.347361 
L 254.37227 106.40933 
L 255.316912 118.793101 
L 256.261554 129.957084 
L 257.206196 139.413035 
L 258.150838 146.685706 
L 259.09548 151.603414 
L 260.040122 153.866412 
L 260.984764 153.375732 
L 261.929406 150.152834 
L 262.874048 144.338665 
L 263.81869 136.187504 
L 264.763332 126.05583 
L 265.707974 114.386742 
L 266.652616 101.690573 
L 267.597257 88.522575 
L 268.541899 75.458637 
L 269.486541 63.070093 
L 270.431183 51.898742 
L 271.375825 42.433152 
L 272.320467 35.087287 
L 273.265109 30.182412 
L 274.209751 27.933035 
L 275.154393 28.43753 
L 276.099035 31.673834 
L 277.043677 37.50041 
L 277.988319 45.66244 
L 278.932961 55.802968 
L 279.877603 67.478508 
L 280.822245 80.178445 
L 281.766887 93.347361 
L 282.711529 106.40933 
L 283.656171 118.793101 
L 284.600813 129.957084 
L 285.545455 139.413035 
" clip-path="url(#p7cd5488e54)" style="fill: none; stroke: #ff7f0e; stroke-width: 1.5; stroke-linecap: square"/>
   </g>
   <g id="patch_3">
    <path d="M 108 160.2 
L 108 21.6 
" style="fill: none; stroke: #000000; stroke-width: 0.8; stroke-linejoin: miter; stroke-linecap: square"/>
   </g>
   <g id="patch_4">
    <path d="M 294 160.2 
L 294 21.6 
" style="fill: none; stroke: #000000; stroke-width: 0.8; stroke-linejoin: miter; stroke-linecap: square"/>
   </g>
   <g id="patch_5">
    <path d="M 108 160.2 
L 294 160.2 
" style="fill: none; stroke: #000000; stroke-width: 0.8; stroke-linejoin: miter; stroke-linecap: square"/>
   </g>
   <g id="patch_6">
    <path d="M 108 21.6 
L 294 21.6 
" style="fill: none; stroke: #000000; stroke-width: 0.8; stroke-linejoin: miter; stroke-linecap: square"/>
   </g>
   <g id="legend_1">
    <g id="patch_7">
     <path d="M 115 58.95625 
L 196.673438 58.95625 
Q 198.673438 58.95625 198.673438 56.95625 
L 198.673438 28.6 
Q 198.673438 26.6 196.673438 26.6 
L 115 26.6 
Q 113 26.6 113 28.6 
L 113 56.95625 
Q 113 58.95625 115 58.95625 
z
" style="fill: #ffffff; opacity: 0.8; stroke: #cccccc; stroke-linejoin: miter"/>
    </g>
    <g id="line2d_12">
     <path d="M 117 34.698437 
L 127 34.698437 
L 137 34.698437 
" style="fill: none; stroke: #1f77b4; stroke-width: 1.5; stroke-linecap: square"/>
    </g>
    <g id="text_10">
     <!-- History -->
     <g transform="translate(145 38.198437)scale(0.1 -0.1)">
      <defs>
       <path id="DejaVuSans-48" d="M 628 4666 
L 1259 4666 
L 1259 2753 
L 3553 2753 
L 3553 4666 
L 4184 4666 
L 4184 0 
L 3553 0 
L 3553 2222 
L 1259 2222 
L 1259 0 
L 628 0 
L 628 4666 
z
" transform="scale(0.015625)"/>
       <path id="DejaVuSans-69" d="M 603 3500 
L 1178 3500 
L 1178 0 
L 603 0 
L 603 3500 
z
M 603 4863 
L 1178 4863 
L 1178 4134 
L 603 4134 
L 603 4863 
z
" transform="scale(0.015625)"/>
       <path id="DejaVuSans-73" d="M 2834 3397 
L 2834 2853 
Q 2591 2978 2328 3040 
Q 2066 3103 1784 3103 
Q 1356 3103 1142 2972 
Q 928 2841 928 2578 
Q 928 2378 1081 2264 
Q 1234 2150 1697 2047 
L 1894 2003 
Q 2506 1872 2764 1633 
Q 3022 1394 3022 966 
Q 3022 478 2636 193 
Q 2250 -91 1575 -91 
Q 1294 -91 989 -36 
Q 684 19 347 128 
L 347 722 
Q 666 556 975 473 
Q 1284 391 1588 391 
Q 1994 391 2212 530 
Q 2431 669 2431 922 
Q 2431 1156 2273 1281 
Q 2116 1406 1581 1522 
L 1381 1569 
Q 847 1681 609 1914 
Q 372 2147 372 2553 
Q 372 3047 722 3315 
Q 1072 3584 1716 3584 
Q 2034 3584 2315 3537 
Q 2597 3491 2834 3397 
z
" transform="scale(0.015625)"/>
       <path id="DejaVuSans-74" d="M 1172 4494 
L 1172 3500 
L 2356 3500 
L 2356 3053 
L 1172 3053 
L 1172 1153 
Q 1172 725 1289 603 
Q 1406 481 1766 481 
L 2356 481 
L 2356 0 
L 1766 0 
Q 1100 0 847 248 
Q 594 497 594 1153 
L 594 3053 
L 172 3053 
L 172 3500 
L 594 3500 
L 594 4494 
L 1172 4494 
z
" transform="scale(0.015625)"/>
       <path id="DejaVuSans-6f" d="M 1959 3097 
Q 1497 3097 1228 2736 
Q 959 2375 959 1747 
Q 959 1119 1226 758 
Q 1494 397 1959 397 
Q 2419 397 2687 759 
Q 2956 1122 2956 1747 
Q 2956 2369 2687 2733 
Q 2419 3097 1959 3097 
z
M 1959 3584 
Q 2709 3584 3137 3096 
Q 3566 2609 3566 1747 
Q 3566 888 3137 398 
Q 2709 -91 1959 -91 
Q 1206 -91 779 398 
Q 353 888 353 1747 
Q 353 2609 779 3096 
Q 1206 3584 1959 3584 
z
" transform="scale(0.015625)"/>
       <path id="DejaVuSans-72" d="M 2631 2963 
Q 2534 3019 2420 3045 
Q 2306 3072 2169 3072 
Q 1681 3072 1420 2755 
Q 1159 2438 1159 1844 
L 1159 0 
L 581 0 
L 581 3500 
L 1159 3500 
L 1159 2956 
Q 1341 3275 1631 3429 
Q 1922 3584 2338 3584 
Q 2397 3584 2469 3576 
Q 2541 3569 2628 3553 
L 2631 2963 
z
" transform="scale(0.015625)"/>
       <path id="DejaVuSans-79" d="M 2059 -325 
Q 1816 -950 1584 -1140 
Q 1353 -1331 966 -1331 
L 506 -1331 
L 506 -850 
L 844 -850 
Q 1081 -850 1212 -737 
Q 1344 -625 1503 -206 
L 1606 56 
L 191 3500 
L 800 3500 
L 1894 763 
L 2988 3500 
L 3597 3500 
L 2059 -325 
z
" transform="scale(0.015625)"/>
      </defs>
      <use xlink:href="#DejaVuSans-48"/>
      <use xlink:href="#DejaVuSans-69" x="75.195312"/>
      <use xlink:href="#DejaVuSans-73" x="102.978516"/>
      <use xlink:href="#DejaVuSans-74" x="155.078125"/>
      <use xlink:href="#DejaVuSans-6f" x="194.287109"/>
      <use xlink:href="#DejaVuSans-72" x="255.46875"/>
      <use xlink:href="#DejaVuSans-79" x="296.582031"/>
     </g>
    </g>
    <g id="line2d_13">
     <path d="M 117 49.376562 
L 127 49.376562 
L 137 49.376562 
" style="fill: none; stroke: #ff7f0e; stroke-width: 1.5; stroke-linecap: square"/>
    </g>
    <g id="text_11">
     <!-- Prediction -->
     <g transform="translate(145 52.876562)scale(0.1 -0.1)">
      <defs>
       <path id="DejaVuSans-50" d="M 1259 4147 
L 1259 2394 
L 2053 2394 
Q 2494 2394 2734 2622 
Q 2975 2850 2975 3272 
Q 2975 3691 2734 3919 
Q 2494 4147 2053 4147 
L 1259 4147 
z
M 628 4666 
L 2053 4666 
Q 2838 4666 3239 4311 
Q 3641 3956 3641 3272 
Q 3641 2581 3239 2228 
Q 2838 1875 2053 1875 
L 1259 1875 
L 1259 0 
L 628 0 
L 628 4666 
z
" transform="scale(0.015625)"/>
       <path id="DejaVuSans-65" d="M 3597 1894 
L 3597 1613 
L 953 1613 
Q 991 1019 1311 708 
Q 1631 397 2203 397 
Q 2534 397 2845 478 
Q 3156 559 3463 722 
L 3463 178 
Q 3153 47 2828 -22 
Q 2503 -91 2169 -91 
Q 1331 -91 842 396 
Q 353 884 353 1716 
Q 353 2575 817 3079 
Q 1281 3584 2069 3584 
Q 2775 3584 3186 3129 
Q 3597 2675 3597 1894 
z
M 3022 2063 
Q 3016 2534 2758 2815 
Q 2500 3097 2075 3097 
Q 1594 3097 1305 2825 
Q 1016 2553 972 2059 
L 3022 2063 
z
" transform="scale(0.015625)"/>
       <path id="DejaVuSans-64" d="M 2906 2969 
L 2906 4863 
L 3481 4863 
L 3481 0 
L 2906 0 
L 2906 525 
Q 2725 213 2448 61 
Q 2172 -91 1784 -91 
Q 1150 -91 751 415 
Q 353 922 353 1747 
Q 353 2572 751 3078 
Q 1150 3584 1784 3584 
Q 2172 3584 2448 3432 
Q 2725 3281 2906 2969 
z
M 947 1747 
Q 947 1113 1208 752 
Q 1469 391 1925 391 
Q 2381 391 2643 752 
Q 2906 1113 2906 1747 
Q 2906 2381 2643 2742 
Q 2381 3103 1925 3103 
Q 1469 3103 1208 2742 
Q 947 2381 947 1747 
z
" transform="scale(0.015625)"/>
       <path id="DejaVuSans-63" d="M 3122 3366 
L 3122 2828 
Q 2878 2963 2633 3030 
Q 2388 3097 2138 3097 
Q 1578 3097 1268 2742 
Q 959 2388 959 1747 
Q 959 1106 1268 751 
Q 1578 397 2138 397 
Q 2388 397 2633 464 
Q 2878 531 3122 666 
L 3122 134 
Q 2881 22 2623 -34 
Q 2366 -91 2075 -91 
Q 1284 -91 818 406 
Q 353 903 353 1747 
Q 353 2603 823 3093 
Q 1294 3584 2113 3584 
Q 2378 3584 2631 3529 
Q 2884 3475 3122 3366 
z
" transform="scale(0.015625)"/>
       <path id="DejaVuSans-6e" d="M 3513 2113 
L 3513 0 
L 2938 0 
L 2938 2094 
Q 2938 2591 2744 2837 
Q 2550 3084 2163 3084 
Q 1697 3084 1428 2787 
Q 1159 2491 1159 1978 
L 1159 0 
L 581 0 
L 581 3500 
L 1159 3500 
L 1159 2956 
Q 1366 3272 1645 3428 
Q 1925 3584 2291 3584 
Q 2894 3584 3203 3211 
Q 3513 2838 3513 2113 
z
" transform="scale(0.015625)"/>
      </defs>
      <use xlink:href="#DejaVuSans-50"/>
      <use xlink:href="#DejaVuSans-72" x="58.552734"/>
      <use xlink:href="#DejaVuSans-65" x="97.416016"/>
      <use xlink:href="#DejaVuSans-64" x="158.939453"/>
      <use xlink:href="#DejaVuSans-69" x="222.416016"/>
      <use xlink:href="#DejaVuSans-63" x="250.199219"/>
      <use xlink:href="#DejaVuSans-74" x="305.179688"/>
      <use xlink:href="#DejaVuSans-69" x="344.388672"/>
      <use xlink:href="#DejaVuSans-6f" x="372.171875"/>
      <use xlink:href="#DejaVuSans-6e" x="433.353516"/>
     </g>
    </g>
   </g>
  </g>
  <g id="axes_2">
   <g id="patch_8">
    <path d="M 349.8 160.2 
L 535.8 160.2 
L 535.8 21.6 
L 349.8 21.6 
z
" style="fill: #ffffff"/>
   </g>
   <g id="matplotlib.axis_3">
    <g id="xtick_5">
     <g id="line2d_14">
      <g>
       <use xlink:href="#mf15c546eb4" x="358.254545" y="160.2" style="stroke: #000000; stroke-width: 0.8"/>
      </g>
     </g>
     <g id="text_12">
      <!-- 0 -->
      <g transform="translate(355.073295 174.798438)scale(0.1 -0.1)">
       <use xlink:href="#DejaVuSans-30"/>
      </g>
     </g>
    </g>
    <g id="xtick_6">
     <g id="line2d_15">
      <g>
       <use xlink:href="#mf15c546eb4" x="405.486643" y="160.2" style="stroke: #000000; stroke-width: 0.8"/>
      </g>
     </g>
     <g id="text_13">
      <!-- 50 -->
      <g transform="translate(399.124143 174.798438)scale(0.1 -0.1)">
       <use xlink:href="#DejaVuSans-35"/>
       <use xlink:href="#DejaVuSans-30" x="63.623047"/>
      </g>
     </g>
    </g>
    <g id="xtick_7">
     <g id="line2d_16">
      <g>
       <use xlink:href="#mf15c546eb4" x="452.71874" y="160.2" style="stroke: #000000; stroke-width: 0.8"/>
      </g>
     </g>
     <g id="text_14">
      <!-- 100 -->
      <g transform="translate(443.17499 174.798438)scale(0.1 -0.1)">
       <use xlink:href="#DejaVuSans-31"/>
       <use xlink:href="#DejaVuSans-30" x="63.623047"/>
       <use xlink:href="#DejaVuSans-30" x="127.246094"/>
      </g>
     </g>
    </g>
    <g id="xtick_8">
     <g id="line2d_17">
      <g>
       <use xlink:href="#mf15c546eb4" x="499.950838" y="160.2" style="stroke: #000000; stroke-width: 0.8"/>
      </g>
     </g>
     <g id="text_15">
      <!-- 150 -->
      <g transform="translate(490.407088 174.798438)scale(0.1 -0.1)">
       <use xlink:href="#DejaVuSans-31"/>
       <use xlink:href="#DejaVuSans-35" x="63.623047"/>
       <use xlink:href="#DejaVuSans-30" x="127.246094"/>
      </g>
     </g>
    </g>
   </g>
   <g id="matplotlib.axis_4">
    <g id="ytick_6">
     <g id="line2d_18">
      <g>
       <use xlink:href="#m257d1b7592" x="349.8" y="153.995392" style="stroke: #000000; stroke-width: 0.8"/>
      </g>
     </g>
     <g id="text_16">
      <!-- −1.0 -->
      <g transform="translate(318.517188 157.794611)scale(0.1 -0.1)">
       <use xlink:href="#DejaVuSans-2212"/>
       <use xlink:href="#DejaVuSans-31" x="83.789062"/>
       <use xlink:href="#DejaVuSans-2e" x="147.412109"/>
       <use xlink:href="#DejaVuSans-30" x="179.199219"/>
      </g>
     </g>
    </g>
    <g id="ytick_7">
     <g id="line2d_19">
      <g>
       <use xlink:href="#m257d1b7592" x="349.8" y="122.448596" style="stroke: #000000; stroke-width: 0.8"/>
      </g>
     </g>
     <g id="text_17">
      <!-- −0.5 -->
      <g transform="translate(318.517188 126.247814)scale(0.1 -0.1)">
       <use xlink:href="#DejaVuSans-2212"/>
       <use xlink:href="#DejaVuSans-30" x="83.789062"/>
       <use xlink:href="#DejaVuSans-2e" x="147.412109"/>
       <use xlink:href="#DejaVuSans-35" x="179.199219"/>
      </g>
     </g>
    </g>
    <g id="ytick_8">
     <g id="line2d_20">
      <g>
       <use xlink:href="#m257d1b7592" x="349.8" y="90.901799" style="stroke: #000000; stroke-width: 0.8"/>
      </g>
     </g>
     <g id="text_18">
      <!-- 0.0 -->
      <g transform="translate(326.896875 94.701018)scale(0.1 -0.1)">
       <use xlink:href="#DejaVuSans-30"/>
       <use xlink:href="#DejaVuSans-2e" x="63.623047"/>
       <use xlink:href="#DejaVuSans-30" x="95.410156"/>
      </g>
     </g>
    </g>
    <g id="ytick_9">
     <g id="line2d_21">
      <g>
       <use xlink:href="#m257d1b7592" x="349.8" y="59.355003" style="stroke: #000000; stroke-width: 0.8"/>
      </g>
     </g>
     <g id="text_19">
      <!-- 0.5 -->
      <g transform="translate(326.896875 63.154222)scale(0.1 -0.1)">
       <use xlink:href="#DejaVuSans-30"/>
       <use xlink:href="#DejaVuSans-2e" x="63.623047"/>
       <use xlink:href="#DejaVuSans-35" x="95.410156"/>
      </g>
     </g>
    </g>
    <g id="ytick_10">
     <g id="line2d_22">
      <g>
       <use xlink:href="#m257d1b7592" x="349.8" y="27.808207" style="stroke: #000000; stroke-width: 0.8"/>
      </g>
     </g>
     <g id="text_20">
      <!-- 1.0 -->
      <g transform="translate(326.896875 31.607425)scale(0.1 -0.1)">
       <use xlink:href="#DejaVuSans-31"/>
       <use xlink:href="#DejaVuSans-2e" x="63.623047"/>
       <use xlink:href="#DejaVuSans-30" x="95.410156"/>
      </g>
     </g>
    </g>
   </g>
   <g id="line2d_23">
    <path d="M 358.254545 37.512863 
L 359.199187 45.672969 
L 360.143829 55.811105 
L 362.033113 80.180835 
L 364.867039 118.786386 
L 365.811681 129.947736 
L 366.756323 139.401458 
L 367.700965 146.734104 
L 368.645607 151.624988 
L 369.590249 153.860214 
L 370.534891 153.342026 
L 371.479533 150.093087 
L 372.424175 144.255486 
L 373.368817 136.084523 
L 374.313459 125.937546 
L 376.202743 101.557626 
L 379.036668 62.95794 
L 379.98131 51.803967 
L 380.925952 42.359892 
L 381.870594 35.038742 
L 382.815236 30.160698 
L 383.759878 27.939095 
L 384.70452 28.471094 
L 385.649162 31.733427 
L 386.593804 37.583421 
L 387.538446 45.765232 
L 388.483088 55.921038 
L 390.372372 80.311123 
L 393.206298 118.904901 
L 394.15094 130.051484 
L 395.095582 139.485901 
L 396.040223 146.795548 
L 396.984865 151.660747 
L 397.929507 153.868724 
L 398.874149 153.322915 
L 399.818791 150.047191 
L 400.763433 144.184811 
L 401.708075 135.992161 
L 402.652717 125.827536 
L 404.542001 101.427314 
L 407.375927 62.839486 
L 408.320569 51.700305 
L 409.265211 42.275556 
L 410.209853 34.97742 
L 411.154495 30.125072 
L 412.099137 27.930723 
L 413.043779 28.490342 
L 413.988421 31.779454 
L 414.933062 37.654213 
L 415.877704 45.857693 
L 416.822346 56.031126 
L 418.71163 80.441457 
L 421.545556 119.023293 
L 422.490198 130.15506 
L 423.43484 139.57013 
L 424.379482 146.856747 
L 425.324124 151.69624 
L 426.268766 153.876957 
L 427.213408 153.30353 
L 428.15805 150.001034 
L 429.102692 144.113902 
L 430.047334 135.899601 
L 430.991976 125.717372 
L 432.88126 101.296957 
L 435.715185 62.721155 
L 436.659827 51.596816 
L 437.604469 42.191434 
L 438.549111 34.916344 
L 439.493753 30.089713 
L 440.438395 27.922628 
L 441.383037 28.509864 
L 442.327679 31.82574 
L 443.272321 37.725238 
L 444.216963 45.950352 
L 445.161605 56.141366 
L 447.050889 80.571838 
L 449.884815 119.141562 
L 450.829457 130.258463 
L 451.774099 139.654146 
L 452.71874 146.917701 
L 453.663382 151.731465 
L 454.608024 153.884915 
L 455.552666 153.283871 
L 456.497308 149.954619 
L 457.44195 144.04276 
L 458.386592 135.806843 
L 459.331234 125.607056 
L 461.220518 101.166553 
L 464.054444 62.602948 
L 464.999086 51.493499 
L 465.943728 42.107525 
L 466.88837 34.855513 
L 467.833012 30.05462 
L 468.777654 27.914809 
L 469.722296 28.52966 
L 470.666938 31.872285 
L 471.611579 37.796497 
L 472.556221 46.043208 
L 473.500863 56.251758 
L 475.390147 80.702264 
L 478.224073 119.259707 
L 479.168715 130.361694 
L 480.113357 139.737947 
L 481.057999 146.978408 
L 482.002641 151.766424 
L 482.947283 153.892596 
L 483.891925 153.263938 
L 484.836567 149.907944 
L 485.781209 143.971384 
L 486.725851 135.713888 
L 487.670493 125.496587 
L 489.559777 101.036105 
L 492.393702 62.484865 
L 493.338344 51.390354 
L 494.282986 42.023831 
L 495.227628 34.794929 
L 496.17227 30.019795 
L 497.116912 27.907266 
L 498.061554 28.54973 
L 499.006196 31.919089 
L 499.950838 37.867989 
L 500.89548 46.136262 
L 501.840122 56.362303 
L 503.729406 80.832734 
L 506.563332 119.377728 
L 507.507974 130.464751 
L 508.452616 139.821535 
L 509.397257 147.03887 
L 510.341899 151.801116 
L 511.286541 153.9 
L 512.231183 153.243731 
L 513.175825 149.86101 
L 514.120467 143.899776 
L 515.065109 135.620736 
L 516.009751 125.385966 
L 517.899035 100.905612 
L 520.732961 62.366907 
L 521.677603 51.287384 
L 522.622245 41.940351 
L 523.566887 34.73459 
L 524.511529 29.985237 
L 525.456171 27.9 
L 526.400813 28.570073 
L 527.345455 31.966153 
L 527.345455 31.966153 
" clip-path="url(#p96e401f0f1)" style="fill: none; stroke: #1f77b4; stroke-width: 1.5; stroke-linecap: square"/>
   </g>
   <g id="line2d_24">
    <path d="M 443.272321 37.583499 
L 444.216963 45.765298 
L 445.161605 55.92109 
L 446.106247 67.606722 
L 447.050889 80.311138 
L 447.995531 93.478724 
L 448.940173 106.533612 
L 449.884815 118.90486 
L 450.829457 130.051427 
L 451.774099 139.48583 
L 452.71874 146.795466 
L 453.663382 151.660658 
L 454.608024 153.868632 
L 455.552666 153.322823 
L 456.497308 150.047104 
L 457.44195 144.184733 
L 458.386592 135.992095 
L 459.331234 125.827485 
L 460.275876 114.13544 
L 461.220518 101.427299 
L 462.16516 88.258837 
L 463.109802 75.205962 
L 464.054444 62.839527 
L 464.999086 51.700363 
L 465.943728 42.275628 
L 466.88837 34.977502 
L 467.833012 30.125161 
L 468.777654 27.930816 
L 469.722296 28.490433 
L 470.666938 31.77954 
L 471.611579 37.583499 
L 472.556221 45.765298 
L 473.500863 55.92109 
L 474.445505 67.606722 
L 475.390147 80.311138 
L 476.334789 93.478724 
L 477.279431 106.533612 
L 478.224073 118.90486 
L 479.168715 130.051427 
L 480.113357 139.48583 
L 481.057999 146.795466 
L 482.002641 151.660658 
L 482.947283 153.868632 
L 483.891925 153.322823 
L 484.836567 150.047104 
L 485.781209 144.184733 
L 486.725851 135.992095 
L 487.670493 125.827485 
L 488.615135 114.13544 
L 489.559777 101.427299 
L 490.504418 88.258837 
L 491.44906 75.205962 
L 492.393702 62.839527 
L 493.338344 51.700363 
L 494.282986 42.275628 
L 495.227628 34.977502 
L 496.17227 30.125161 
L 497.116912 27.930816 
L 498.061554 28.490433 
L 499.006196 31.77954 
L 499.950838 37.583499 
L 500.89548 45.765298 
L 501.840122 55.92109 
L 502.784764 67.606722 
L 503.729406 80.311138 
L 504.674048 93.478724 
L 505.61869 106.533612 
L 506.563332 118.90486 
L 507.507974 130.051427 
L 508.452616 139.48583 
L 509.397257 146.795466 
L 510.341899 151.660658 
L 511.286541 153.868632 
L 512.231183 153.322823 
L 513.175825 150.047104 
L 514.120467 144.184733 
L 515.065109 135.992095 
L 516.009751 125.827485 
L 516.954393 114.13544 
L 517.899035 101.427299 
L 518.843677 88.258837 
L 519.788319 75.205962 
L 520.732961 62.839527 
L 521.677603 51.700363 
L 522.622245 42.275628 
L 523.566887 34.977502 
L 524.511529 30.125161 
L 525.456171 27.930816 
L 526.400813 28.490433 
L 527.345455 31.77954 
" clip-path="url(#p96e401f0f1)" style="fill: none; stroke: #ff7f0e; stroke-width: 1.5; stroke-linecap: square"/>
   </g>
   <g id="patch_9">
    <path d="M 349.8 160.2 
L 349.8 21.6 
" style="fill: none; stroke: #000000; stroke-width: 0.8; stroke-linejoin: miter; stroke-linecap: square"/>
   </g>
   <g id="patch_10">
    <path d="M 535.8 160.2 
L 535.8 21.6 
" style="fill: none; stroke: #000000; stroke-width: 0.8; stroke-linejoin: miter; stroke-linecap: square"/>
   </g>
   <g id="patch_11">
    <path d="M 349.8 160.2 
L 535.8 160.2 
" style="fill: none; stroke: #000000; stroke-width: 0.8; stroke-linejoin: miter; stroke-linecap: square"/>
   </g>
   <g id="patch_12">
    <path d="M 349.8 21.6 
L 535.8 21.6 
" style="fill: none; stroke: #000000; stroke-width: 0.8; stroke-linejoin: miter; stroke-linecap: square"/>
   </g>
  </g>
  <g id="axes_3">
   <g id="patch_13">
    <path d="M 591.6 160.2 
L 777.6 160.2 
L 777.6 21.6 
L 591.6 21.6 
z
" style="fill: #ffffff"/>
   </g>
   <g id="matplotlib.axis_5">
    <g id="xtick_9">
     <g id="line2d_25">
      <g>
       <use xlink:href="#mf15c546eb4" x="600.054545" y="160.2" style="stroke: #000000; stroke-width: 0.8"/>
      </g>
     </g>
     <g id="text_21">
      <!-- 0 -->
      <g transform="translate(596.873295 174.798438)scale(0.1 -0.1)">
       <use xlink:href="#DejaVuSans-30"/>
      </g>
     </g>
    </g>
    <g id="xtick_10">
     <g id="line2d_26">
      <g>
       <use xlink:href="#mf15c546eb4" x="647.286643" y="160.2" style="stroke: #000000; stroke-width: 0.8"/>
      </g>
     </g>
     <g id="text_22">
      <!-- 50 -->
      <g transform="translate(640.924143 174.798438)scale(0.1 -0.1)">
       <use xlink:href="#DejaVuSans-35"/>
       <use xlink:href="#DejaVuSans-30" x="63.623047"/>
      </g>
     </g>
    </g>
    <g id="xtick_11">
     <g id="line2d_27">
      <g>
       <use xlink:href="#mf15c546eb4" x="694.51874" y="160.2" style="stroke: #000000; stroke-width: 0.8"/>
      </g>
     </g>
     <g id="text_23">
      <!-- 100 -->
      <g transform="translate(684.97499 174.798438)scale(0.1 -0.1)">
       <use xlink:href="#DejaVuSans-31"/>
       <use xlink:href="#DejaVuSans-30" x="63.623047"/>
       <use xlink:href="#DejaVuSans-30" x="127.246094"/>
      </g>
     </g>
    </g>
    <g id="xtick_12">
     <g id="line2d_28">
      <g>
       <use xlink:href="#mf15c546eb4" x="741.750838" y="160.2" style="stroke: #000000; stroke-width: 0.8"/>
      </g>
     </g>
     <g id="text_24">
      <!-- 150 -->
      <g transform="translate(732.207088 174.798438)scale(0.1 -0.1)">
       <use xlink:href="#DejaVuSans-31"/>
       <use xlink:href="#DejaVuSans-35" x="63.623047"/>
       <use xlink:href="#DejaVuSans-30" x="127.246094"/>
      </g>
     </g>
    </g>
   </g>
   <g id="matplotlib.axis_6">
    <g id="ytick_11">
     <g id="line2d_29">
      <g>
       <use xlink:href="#m257d1b7592" x="591.6" y="153.981399" style="stroke: #000000; stroke-width: 0.8"/>
      </g>
     </g>
     <g id="text_25">
      <!-- −1.0 -->
      <g transform="translate(560.317188 157.780618)scale(0.1 -0.1)">
       <use xlink:href="#DejaVuSans-2212"/>
       <use xlink:href="#DejaVuSans-31" x="83.789062"/>
       <use xlink:href="#DejaVuSans-2e" x="147.412109"/>
       <use xlink:href="#DejaVuSans-30" x="179.199219"/>
      </g>
     </g>
    </g>
    <g id="ytick_12">
     <g id="line2d_30">
      <g>
       <use xlink:href="#m257d1b7592" x="591.6" y="122.439852" style="stroke: #000000; stroke-width: 0.8"/>
      </g>
     </g>
     <g id="text_26">
      <!-- −0.5 -->
      <g transform="translate(560.317188 126.239071)scale(0.1 -0.1)">
       <use xlink:href="#DejaVuSans-2212"/>
       <use xlink:href="#DejaVuSans-30" x="83.789062"/>
       <use xlink:href="#DejaVuSans-2e" x="147.412109"/>
       <use xlink:href="#DejaVuSans-35" x="179.199219"/>
      </g>
     </g>
    </g>
    <g id="ytick_13">
     <g id="line2d_31">
      <g>
       <use xlink:href="#m257d1b7592" x="591.6" y="90.898305" style="stroke: #000000; stroke-width: 0.8"/>
      </g>
     </g>
     <g id="text_27">
      <!-- 0.0 -->
      <g transform="translate(568.696875 94.697523)scale(0.1 -0.1)">
       <use xlink:href="#DejaVuSans-30"/>
       <use xlink:href="#DejaVuSans-2e" x="63.623047"/>
       <use xlink:href="#DejaVuSans-30" x="95.410156"/>
      </g>
     </g>
    </g>
    <g id="ytick_14">
     <g id="line2d_32">
      <g>
       <use xlink:href="#m257d1b7592" x="591.6" y="59.356758" style="stroke: #000000; stroke-width: 0.8"/>
      </g>
     </g>
     <g id="text_28">
      <!-- 0.5 -->
      <g transform="translate(568.696875 63.155976)scale(0.1 -0.1)">
       <use xlink:href="#DejaVuSans-30"/>
       <use xlink:href="#DejaVuSans-2e" x="63.623047"/>
       <use xlink:href="#DejaVuSans-35" x="95.410156"/>
      </g>
     </g>
    </g>
    <g id="ytick_15">
     <g id="line2d_33">
      <g>
       <use xlink:href="#m257d1b7592" x="591.6" y="27.81521" style="stroke: #000000; stroke-width: 0.8"/>
      </g>
     </g>
     <g id="text_29">
      <!-- 1.0 -->
      <g transform="translate(568.696875 31.614429)scale(0.1 -0.1)">
       <use xlink:href="#DejaVuSans-31"/>
       <use xlink:href="#DejaVuSans-2e" x="63.623047"/>
       <use xlink:href="#DejaVuSans-30" x="95.410156"/>
      </g>
     </g>
    </g>
   </g>
   <g id="line2d_34">
    <path d="M 600.054545 88.255779 
L 601.943829 62.840661 
L 602.888471 51.703333 
L 603.833113 42.280153 
L 604.777755 34.983231 
L 605.722397 30.13169 
L 606.667039 27.937707 
L 607.611681 28.497232 
L 608.556323 31.785797 
L 609.500965 37.659578 
L 610.445607 45.861694 
L 611.390249 56.033433 
L 613.279533 80.439703 
L 616.113459 119.01512 
L 617.058101 130.145034 
L 618.002743 139.558538 
L 618.947384 146.843942 
L 619.892026 151.682629 
L 620.836668 153.862984 
L 621.78131 153.289652 
L 622.725952 149.987706 
L 623.670594 144.101554 
L 624.615236 135.888619 
L 625.559878 125.708085 
L 627.449162 101.291732 
L 630.283088 62.72235 
L 631.22773 51.599861 
L 632.172372 42.196044 
L 633.117014 34.922165 
L 634.061656 30.096337 
L 635.006298 27.929612 
L 635.95094 28.516751 
L 636.895582 31.832075 
L 637.840223 37.730592 
L 638.784865 45.954337 
L 639.729507 56.143655 
L 641.618791 80.570062 
L 644.452717 119.133369 
L 645.397359 130.24842 
L 646.342001 139.642539 
L 647.286643 146.904886 
L 648.231285 151.717849 
L 649.175927 153.87094 
L 650.120569 153.269996 
L 651.065211 149.941298 
L 652.009853 144.030423 
L 652.954495 135.795877 
L 653.899137 125.597786 
L 655.788421 101.161351 
L 658.622346 62.604162 
L 659.566988 51.496561 
L 660.51163 42.11215 
L 661.456272 34.861344 
L 662.400914 30.06125 
L 663.345556 27.921795 
L 664.290198 28.536544 
L 665.23484 31.878612 
L 666.179482 37.801839 
L 667.124124 46.047178 
L 668.068766 56.254029 
L 669.95805 80.700466 
L 672.791976 119.251494 
L 673.736618 130.351633 
L 674.68126 139.726327 
L 675.625901 146.965583 
L 676.570543 151.752802 
L 677.515185 153.87862 
L 678.459827 153.250067 
L 679.404469 149.894631 
L 680.349111 143.95906 
L 681.293753 135.702937 
L 682.238395 125.487336 
L 684.127679 101.030924 
L 686.961605 62.486099 
L 687.906247 51.393434 
L 688.850889 42.028469 
L 689.795531 34.80077 
L 690.740173 30.026431 
L 691.684815 27.914253 
L 692.629457 28.55661 
L 693.574099 31.925409 
L 694.51874 37.873319 
L 695.463382 46.140216 
L 696.408024 56.364556 
L 698.297308 80.830915 
L 701.131234 119.369495 
L 702.075876 130.454674 
L 703.020518 139.8099 
L 703.96516 147.026035 
L 704.909802 151.787488 
L 705.854444 153.886023 
L 706.799086 153.229863 
L 707.743728 149.847705 
L 708.68837 143.887463 
L 709.633012 135.609801 
L 710.577654 125.376734 
L 712.466938 100.900453 
L 715.300863 62.368161 
L 716.245505 51.290481 
L 717.190147 41.945003 
L 718.134789 34.740441 
L 719.079431 29.991879 
L 720.024073 27.906988 
L 720.968715 28.57695 
L 721.913357 31.972465 
L 722.857999 37.945032 
L 723.802641 46.23345 
L 724.747283 56.475233 
L 726.636567 80.961408 
L 729.470493 119.487371 
L 730.415135 130.55754 
L 731.359777 139.893259 
L 732.304418 147.08624 
L 733.24906 151.821906 
L 734.193702 153.89315 
L 735.138344 153.209387 
L 736.082986 149.80052 
L 737.027628 143.815634 
L 737.97227 135.516469 
L 738.916912 125.26598 
L 740.806196 100.769938 
L 743.640122 62.250348 
L 744.584764 51.187701 
L 745.529406 41.861752 
L 746.474048 34.68036 
L 747.41869 29.957594 
L 748.363332 27.9 
L 749.307974 28.597564 
L 750.252616 32.019779 
L 751.197257 38.016978 
L 752.141899 46.32688 
L 753.086541 56.586062 
L 754.975825 81.091945 
L 757.809751 119.605121 
L 758.754393 130.660233 
L 759.699035 139.976403 
L 760.643677 147.146198 
L 761.588319 151.856058 
L 762.532961 153.9 
L 763.477603 153.188636 
L 764.422245 149.753077 
L 765.366887 143.743572 
L 766.311529 135.422941 
L 767.256171 125.155076 
L 769.145455 100.63938 
L 769.145455 100.63938 
" clip-path="url(#pba04d541e6)" style="fill: none; stroke: #1f77b4; stroke-width: 1.5; stroke-linecap: square"/>
   </g>
   <g id="line2d_35">
    <path d="M 685.072321 88.12374 
L 686.016963 75.077104 
L 686.961605 62.722391 
L 687.906247 51.599919 
L 688.850889 42.196116 
L 689.795531 34.922247 
L 690.740173 30.096426 
L 691.684815 27.929705 
L 692.629457 28.516842 
L 693.574099 31.832161 
L 694.51874 37.73067 
L 695.463382 45.954403 
L 696.408024 56.143706 
L 697.352666 67.852961 
L 698.297308 80.570077 
L 699.24195 93.738887 
L 700.186592 106.783467 
L 701.131234 119.133328 
L 702.075876 130.248362 
L 703.020518 139.642468 
L 703.96516 146.904804 
L 704.909802 151.71776 
L 705.854444 153.870848 
L 706.799086 153.269905 
L 707.743728 149.941212 
L 708.68837 144.030346 
L 709.633012 135.795811 
L 710.577654 125.597736 
L 711.522296 113.882121 
L 712.466938 101.161336 
L 713.411579 88.12374 
L 714.356221 75.077104 
L 715.300863 62.722391 
L 716.245505 51.599919 
L 717.190147 42.196116 
L 718.134789 34.922247 
L 719.079431 30.096426 
L 720.024073 27.929705 
L 720.968715 28.516842 
L 721.913357 31.832161 
L 722.857999 37.73067 
L 723.802641 45.954403 
L 724.747283 56.143706 
L 725.691925 67.852961 
L 726.636567 80.570077 
L 727.581209 93.738887 
L 728.525851 106.783467 
L 729.470493 119.133328 
L 730.415135 130.248362 
L 731.359777 139.642468 
L 732.304418 146.904804 
L 733.24906 151.71776 
L 734.193702 153.870848 
L 735.138344 153.269905 
L 736.082986 149.941212 
L 737.027628 144.030346 
L 737.97227 135.795811 
L 738.916912 125.597736 
L 739.861554 113.882121 
L 740.806196 101.161336 
L 741.750838 88.12374 
L 742.69548 75.077104 
L 743.640122 62.722391 
L 744.584764 51.599919 
L 745.529406 42.196116 
L 746.474048 34.922247 
L 747.41869 30.096426 
L 748.363332 27.929705 
L 749.307974 28.516842 
L 750.252616 31.832161 
L 751.197257 37.73067 
L 752.141899 45.954403 
L 753.086541 56.143706 
L 754.031183 67.852961 
L 754.975825 80.570077 
L 755.920467 93.738887 
L 756.865109 106.783467 
L 757.809751 119.133328 
L 758.754393 130.248362 
L 759.699035 139.642468 
L 760.643677 146.904804 
L 761.588319 151.71776 
L 762.532961 153.870848 
L 763.477603 153.269905 
L 764.422245 149.941212 
L 765.366887 144.030346 
L 766.311529 135.795811 
L 767.256171 125.597736 
L 768.200813 113.882121 
L 769.145455 101.161336 
" clip-path="url(#pba04d541e6)" style="fill: none; stroke: #ff7f0e; stroke-width: 1.5; stroke-linecap: square"/>
   </g>
   <g id="patch_14">
    <path d="M 591.6 160.2 
L 591.6 21.6 
" style="fill: none; stroke: #000000; stroke-width: 0.8; stroke-linejoin: miter; stroke-linecap: square"/>
   </g>
   <g id="patch_15">
    <path d="M 777.6 160.2 
L 777.6 21.6 
" style="fill: none; stroke: #000000; stroke-width: 0.8; stroke-linejoin: miter; stroke-linecap: square"/>
   </g>
   <g id="patch_16">
    <path d="M 591.6 160.2 
L 777.6 160.2 
" style="fill: none; stroke: #000000; stroke-width: 0.8; stroke-linejoin: miter; stroke-linecap: square"/>
   </g>
   <g id="patch_17">
    <path d="M 591.6 21.6 
L 777.6 21.6 
" style="fill: none; stroke: #000000; stroke-width: 0.8; stroke-linejoin: miter; stroke-linecap: square"/>
   </g>
  </g>
 </g>
 <defs>
  <clipPath id="p7cd5488e54">
   <rect x="108" y="21.6" width="186" height="138.6"/>
  </clipPath>
  <clipPath id="p96e401f0f1">
   <rect x="349.8" y="21.6" width="186" height="138.6"/>
  </clipPath>
  <clipPath id="pba04d541e6">
   <rect x="591.6" y="21.6" width="186" height="138.6"/>
  </clipPath>
 </defs>
</svg>
